<?xml version="1.0" encoding="UTF-8" standalone="no"?>
<svg width="434px" height="143px" viewBox="0 0 434 143" version="1.1" xmlns="http://www.w3.org/2000/svg" xmlns:xlink="http://www.w3.org/1999/xlink">
    <!-- Generator: Sketch 39.1 (31720) - http://www.bohemiancoding.com/sketch -->
    <title>BoatsView</title>
    <desc>Created with Sketch.</desc>
    <defs></defs>
    <g id="UI" stroke="none" stroke-width="1" fill="none" fill-rule="evenodd">
        <g id="1" transform="translate(-103.000000, -2118.000000)">
            <g id="Sailboats" transform="translate(79.000000, 2012.000000)">
                <g id="BoatsView" transform="translate(0.000000, 46.000000)">
                    <g id="LaserView">
                        <text id="Laser" font-family="AvenirNext-Medium, Avenir Next" font-size="14" font-weight="400" letter-spacing="1.00099993" fill="#000000">
                            <tspan x="40.7235002" y="198.92">Laser</tspan>
                        </text>
                        <path d="M25.5127166,166.643287 L76.1140969,165.328879 L76.1140969,153.409857 C76.1140969,153.409857 67.5512637,154.307814 55.017973,154.66182 C42.4846824,155.015827 30.1211199,154.661819 30.1211199,154.661819 C30.1211199,154.661819 34.0226974,138.527294 37.2036787,130.364246 C38.6368497,126.686436 41.026475,117.754723 45.2018059,108.036158 C48.264959,100.906315 50.9371732,93.6454639 54.0599953,87.0818898 C58.6638553,77.4054573 63.2368852,69.68 63.2368852,69.68 C63.2368852,69.68 69.0852935,92.9029473 72.1512035,112.838025 C75.2171135,132.773103 76.1140964,153.409857 76.1140964,153.409857 L76.1140964,165.32888 L95.0611111,165.32888 C95.0611111,165.32888 91.5041292,169.08102 89.9405522,170.019994 C88.3769753,170.958969 78.8022193,171.52 69.5336013,171.52 C55.4782498,171.52 25.4388889,170.019994 25.4388889,170.019994 L25.5127166,166.643287 Z" id="Path" stroke="#000000" stroke-width="2" stroke-linejoin="round"></path>
                    </g>
                    <g id="420View" transform="translate(120.500000, 0.000000)">
                        <path d="M26.0521642,163.844871 C26.9299646,163.844874 70.2449636,162.569437 70.2449636,162.569437 L69.2771062,150.817101 L63.6253249,150.817101 L34.3323558,150.817101 C34.3323558,150.817101 43.0645868,117.473041 49.4321629,101.430619 C51.8154189,95.426262 58.0467991,79.7605107 61.9851124,72.9076934 C63.8523816,69.6585729 66.5373847,69.6800018 66.5373847,69.6800018 L67.3106242,90.1394982 C67.3106242,90.1394982 82.888803,91.8747457 89.7037514,106.20846 C96.5186999,120.542174 94.8910201,148.148669 94.8910201,148.148669 L69.2771076,150.817103 L67.3106226,90.1394976 L87.6853413,158.982842 C87.6853413,158.982842 79.1856244,160.920478 73.8014453,160.561226 C68.4172661,160.201975 62.5781704,157.307602 62.5781704,157.307602 L63.6253254,150.817103 L69.2771076,150.817103 L70.2449636,162.569437 L89.7037531,161.646078 C89.7037531,161.646078 88.8854328,169.225257 86.9765861,170.012535 C85.0677393,170.799813 82.4113293,171.723243 63.6253254,171.480487 C44.8393216,171.237731 26.8074744,170.012537 26.0521642,169.225259 C25.2968541,168.43798 25.1743639,163.844868 26.0521642,163.844871 Z" id="Path-2" stroke="#000000" stroke-width="2" stroke-linejoin="round"></path>
                        <text id="420" font-family="AvenirNext-Medium, Avenir Next" font-size="14" font-weight="400" letter-spacing="1.00099993" fill="#000000">
                            <tspan x="46.2535001" y="198.92">420</tspan>
                        </text>
                    </g>
                    <g id="Dart16View" transform="translate(241.000000, 0.000000)">
                        <path d="M25.8680653,164.032581 C25.8680653,164.032584 66.1887521,164.032584 66.1887521,164.032584 L65.1694016,155.95627 C65.1694016,155.95627 57.8564641,156.332956 51.916283,155.95627 C45.9761019,155.579583 40.0533183,154.351521 40.0533183,154.351521 C40.0533183,154.351521 36.9548523,135.762409 36.2091504,126.369945 C35.2661856,114.492862 34.504088,100.367751 34.9873181,90.5428792 C35.2167977,85.8771767 36.4346521,78.6496672 37.8785303,73.3257486 C39.3224084,68.00183 39.898442,65.9040868 42.2447992,63.782838 C44.5708948,61.6799069 49.052816,61.64 49.052816,61.64 C49.052816,61.64 51.8855977,62.5631585 57.6282015,95.35072 C59.637345,106.821983 65.1694016,155.95627 65.1694016,155.95627 C65.1694016,155.95627 70.0719506,157.396392 75.5631817,157.277334 C81.0544129,157.158277 86.3476109,155.497097 86.3476109,155.497097 L57.6282015,95.35072 L66.1887521,164.032584 C66.1887521,164.032584 93.9766549,163.280322 94.6507745,164.032584 C95.3248942,164.784846 95.0544155,168.31677 94.6507745,168.711055 C93.4333679,169.900243 47.8969597,171.520002 46.0116064,171.52 C44.1262532,171.519998 39.2637335,170.035806 36.2091508,169.28859 C33.1545681,168.541374 26.8337123,168.30971 25.8680653,167.818906 C24.9024183,167.328101 25.8680653,164.032579 25.8680653,164.032581 Z" id="Path-4" stroke="#000000" stroke-width="2" stroke-linecap="round" stroke-linejoin="round"></path>
                        <text id="dart16" font-family="AvenirNext-Medium, Avenir Next" font-size="14" font-weight="400" letter-spacing="1.00099993" fill="#000000">
                            <tspan x="32.1230558" y="198.92">Dart 16</tspan>
                        </text>
                    </g>
                    <g id="OptimistView" transform="translate(361.500000, 0.000000)">
                        <g id="Optimist" transform="translate(25.438889, 72.360000)" stroke="#000000" stroke-width="2" stroke-linejoin="round">
                            <path d="M0.696516692,89.3285964 C1.64628699,89.3285978 62.6038314,89.3285964 62.6038314,89.3285964 L62.6038314,80.7456529 C62.6038314,80.7456529 3.53471362,82.1263791 2.47727974,80.7456529 C1.41984586,79.3649266 7.60659883,56.4099179 7.60659883,56.4099179 L14.2282626,34.3338843 L18.4863185,22.4828121 L22.850565,15.4719704 C22.850565,15.4719704 32.3391414,0.246981431 33.154839,0.246981431 C33.9705366,0.246981431 61.8197408,22.5279073 62.7761093,25.1871352 C63.7324778,27.846363 62.776111,89.3285978 62.776111,89.3285978 L69.5477137,89.3285978 L65.3753937,96.4521557 C65.3753937,96.4521557 50.6061529,98.98768 33.9705366,98.98768 C17.3349203,98.98768 1.51341884,96.9917959 0.696516692,96.4521557 C-0.120385458,95.9125154 -0.253253607,89.328595 0.696516692,89.3285964 Z" id="Path"></path>
                            <path d="M33.0613983,0.684217857 L66.2101767,52.1525599" id="Path-2" stroke-linecap="round"></path>
                        </g>
                        <text id="dart16" font-family="AvenirNext-Medium, Avenir Next" font-size="14" font-weight="400" letter-spacing="1.00099993" fill="#000000">
                            <tspan x="28.3160003" y="198.92">Optimist</tspan>
                        </text>
                    </g>
                </g>
            </g>
        </g>
    </g>
</svg>