<?xml version="1.0" encoding="UTF-8" standalone="no"?>
<svg width="121px" height="82px" viewBox="0 0 121 82" version="1.1" xmlns="http://www.w3.org/2000/svg" xmlns:xlink="http://www.w3.org/1999/xlink">
    <!-- Generator: Sketch 39.1 (31720) - http://www.bohemiancoding.com/sketch -->
    <title>waves</title>
    <desc>Created with Sketch.</desc>
    <defs></defs>
    <g id="UI" stroke="none" stroke-width="1" fill="none" fill-rule="evenodd" stroke-linejoin="round">
        <g id="Desktop-HD" transform="translate(-658.000000, -1920.000000)" stroke="#8DB8CF" stroke-width="4">
            <g id="waves" transform="translate(657.000000, 1899.000000)">
                <path d="M2,67.0437027 C6.89599543,67.1070134 8.99914267,78.8151369 16.2568104,78.8430283 C23.5144782,78.8709196 24.1740112,67.12417 31.1578911,67.1557571 C38.7911006,67.1902809 38.9605638,79.0194742 46.6063944,78.9802949 C54.252225,78.9411156 54.0329274,67.0049005 61.5535683,67.0000015 C69.0742093,66.9951025 69.0989437,78.9546679 76.7099748,78.9606854 C84.3210059,78.9667028 84.350119,67.0504529 92.0253772,67.0240932 C99.7006354,66.9977335 100.03968,78.865733 107.542761,78.854794 C115.045843,78.8438549 115.917092,67.0240932 122,67.0240932" id="Path-2"></path>
                <path d="M2,45.0437027 C6.89599543,45.1070134 8.99914267,56.8151369 16.2568104,56.8430283 C23.5144782,56.8709196 24.1740112,45.12417 31.1578911,45.1557571 C38.7911006,45.1902809 38.9605638,57.0194742 46.6063944,56.9802949 C54.252225,56.9411156 54.0329274,45.0049005 61.5535683,45.0000015 C69.0742093,44.9951025 69.0989437,56.9546679 76.7099748,56.9606854 C84.3210059,56.9667028 84.350119,45.0504529 92.0253772,45.0240932 C99.7006354,44.9977335 100.03968,56.865733 107.542761,56.854794 C115.045843,56.8438549 115.917092,45.0240932 122,45.0240932" id="Path-2"></path>
                <path d="M2,89.0633107 C6.89599543,89.1266214 8.99914267,100.834745 16.2568104,100.862636 C23.5144782,100.890528 24.1740112,89.1437781 31.1578911,89.1753651 C38.7911006,89.209889 38.9605638,101.039082 46.6063944,100.999903 C54.252225,100.960724 54.0329274,89.0245085 61.5535683,89.0196095 C69.0742093,89.0147106 69.0989437,100.974276 76.7099748,100.980293 C84.3210059,100.986311 84.350119,89.0700609 92.0253772,89.0437012 C99.7006354,89.0173415 100.03968,100.885341 107.542761,100.874402 C115.045843,100.863463 116.348573,89 122,89" id="Path-2-Copy"></path>
                <path d="M2,23.0633107 C6.89599543,23.1266214 8.99914267,34.8347449 16.2568104,34.8626363 C23.5144782,34.8905276 24.1740112,23.1437781 31.1578911,23.1753651 C38.7911006,23.209889 38.9605638,35.0390822 46.6063944,34.9999029 C54.252225,34.9607236 54.0329274,23.0245085 61.5535683,23.0196095 C69.0742093,23.0147106 69.0989437,34.9742759 76.7099748,34.9802934 C84.3210059,34.9863108 84.350119,23.0700609 92.0253772,23.0437012 C99.7006354,23.0173415 100.03968,34.885341 107.542761,34.874402 C115.045843,34.8634629 116.348573,23 122,23" id="Path-2"></path>
            </g>
        </g>
    </g>
</svg>